<?xml version="1.0" encoding="UTF-8" standalone="no"?>
<!-- Created with Inkscape (http://www.inkscape.org/) -->

<svg
   xmlns:dc="http://purl.org/dc/elements/1.1/"
   xmlns:cc="http://creativecommons.org/ns#"
   xmlns:rdf="http://www.w3.org/1999/02/22-rdf-syntax-ns#"
   xmlns:svg="http://www.w3.org/2000/svg"
   xmlns="http://www.w3.org/2000/svg"
   xmlns:sodipodi="http://sodipodi.sourceforge.net/DTD/sodipodi-0.dtd"
   xmlns:inkscape="http://www.inkscape.org/namespaces/inkscape"
   width="210mm"
   height="297mm"
   viewBox="0 0 210 297"
   version="1.1"
   id="svg8"
   inkscape:version="0.92.4 (5da689c313, 2019-01-14)"
   sodipodi:docname="logos.svg">
  <defs
     id="defs2">
    <clipPath
       clipPathUnits="userSpaceOnUse"
       id="clipPath832">
      <circle
         style="opacity:1;fill:#ffffff;fill-opacity:1;stroke:none;stroke-width:0.08284519;stroke-linecap:butt;stroke-linejoin:round;stroke-miterlimit:10;stroke-dasharray:none;stroke-dashoffset:0;stroke-opacity:1;paint-order:markers stroke fill"
         id="circle834"
         cx="127.75596"
         cy="135.60414"
         r="74.839287" />
    </clipPath>
    <clipPath
       clipPathUnits="userSpaceOnUse"
       id="clipPath851">
      <circle
         style="opacity:1;fill:#ffffff;fill-opacity:1;stroke:none;stroke-width:0.11150686;stroke-linecap:butt;stroke-linejoin:round;stroke-miterlimit:10;stroke-dasharray:none;stroke-dashoffset:0;stroke-opacity:1;paint-order:markers stroke fill"
         id="circle853"
         cx="337.42776"
         cy="54.452904"
         r="54.389347" />
    </clipPath>
  </defs>
  <sodipodi:namedview
     id="base"
     pagecolor="#ffffff"
     bordercolor="#666666"
     borderopacity="1.0"
     inkscape:pageopacity="0.0"
     inkscape:pageshadow="2"
     inkscape:zoom="0.35"
     inkscape:cx="1290.1454"
     inkscape:cy="570.2161"
     inkscape:document-units="mm"
     inkscape:current-layer="layer1"
     showgrid="false"
     inkscape:window-width="1920"
     inkscape:window-height="1018"
     inkscape:window-x="-8"
     inkscape:window-y="-8"
     inkscape:window-maximized="1" />
  <metadata
     id="metadata5">
    <rdf:RDF>
      <cc:Work
         rdf:about="">
        <dc:format>image/svg+xml</dc:format>
        <dc:type
           rdf:resource="http://purl.org/dc/dcmitype/StillImage" />
        <dc:title></dc:title>
      </cc:Work>
    </rdf:RDF>
  </metadata>
  <g
     inkscape:label="Layer 1"
     inkscape:groupmode="layer"
     id="layer1">
    <g
       id="g4607"
       inkscape:export-xdpi="326"
       inkscape:export-ydpi="326">
      <rect
         inkscape:export-ydpi="326"
         inkscape:export-xdpi="326"
         y="66.434525"
         x="179.16072"
         height="80.130951"
         width="103.1875"
         id="rect828"
         style="opacity:1;fill:#ffffff;fill-opacity:1;stroke:none;stroke-width:0.1;stroke-linecap:butt;stroke-linejoin:round;stroke-miterlimit:10;stroke-dasharray:none;stroke-dashoffset:0;stroke-opacity:1;paint-order:markers stroke fill" />
      <path
         transform="translate(102.09696,-33.141421)"
         inkscape:export-ydpi="326"
         inkscape:export-xdpi="326"
         clip-path="url(#clipPath832)"
         inkscape:connector-curvature="0"
         id="path826"
         d="m 84.797178,235.13424 c -0.3903,-0.55724 -0.4329,-2.35445 -0.4329,-18.26524 v -17.64718 l -3.10885,-2.32534 c -3.69978,-2.76734 -10.75498,-9.68667 -13.72536,-13.46103 -11.72363,-14.89683 -17.30211,-32.37293 -16.46853,-51.59215 1.37468,-31.69489 22.88436,-59.592821 53.430192,-69.298661 17.4489,-5.544333 36.90953,-4.59636 53.58341,2.61017 14.26579,6.16574 26.27395,16.41296 34.69041,29.60322 2.27173,3.56024 5.83928,10.874321 7.32031,15.007861 4.38434,12.23665 5.56939,25.56023 3.45798,38.87845 -0.79869,5.0379 -2.78457,11.87555 -4.88315,16.8133 -10.82289,25.46515 -33.82665,42.9653 -61.24745,46.59408 -6.48819,0.85863 -17.288,0.57641 -23.00235,-0.6011 l -1.83567,-0.37826 -11.39349,11.3425 c -6.266422,6.23838 -11.969172,11.73101 -12.672772,12.20586 -0.7036,0.47484 -1.72919,0.9237 -2.27908,0.99746 -0.83305,0.11173 -1.07201,0.031 -1.4327,-0.48394 z m 18.423372,-67.2269 c 15.61404,-11.06349 23.47706,-25.14607 23.47706,-42.04714 0,-8.81 -2.48608,-14.17543 -7.77372,-16.77718 -2.43778,-1.19949 -4.91639,-1.70449 -8.36586,-1.70449 -9.06589,0 -13.803672,3.98596 -14.849102,12.49275 -0.56809,4.62266 0.54056,7.73321 4.390372,12.31819 3.99253,4.75495 5.29828,7.10249 5.5941,10.05737 0.30425,3.03899 -1.09642,7.26662 -3.32585,10.03845 -0.87045,1.08221 -7.434812,6.92184 -9.778262,8.69871 -0.33504,0.25402 0.15199,1.03281 3.11438,4.98014 l 3.51153,4.67904 0.71048,-0.45232 c 0.390762,-0.24877 1.873452,-1.27636 3.294872,-2.28352 z m 41.02526,0.85819 c 5.29738,-3.61869 9.38723,-7.20452 12.94753,-11.35193 7.87389,-9.17232 11.83761,-19.73064 11.83761,-31.53232 0,-6.81471 -1.55968,-11.59897 -4.78387,-14.67432 -2.75826,-2.63094 -6.31021,-3.82843 -11.35571,-3.82843 -9.44713,0 -14.28827,4.35565 -14.97667,13.47475 -0.33886,4.48874 0.6563,6.75933 5.5705,12.70981 3.74766,4.53797 4.82961,7.32555 4.34885,11.20459 -0.57914,4.67285 -2.34197,7.23378 -8.70101,12.64033 -2.4011,2.04145 -4.36563,3.83874 -4.36563,3.99398 0,0.25333 6.49313,9.15925 6.70027,9.19003 0.0471,0.007 1.29729,-0.81491 2.77813,-1.82649 z"
         style="fill:#5078c8;fill-opacity:1;stroke-width:0.26458332" />
    </g>
    <path
       style="fill:#5078c8;fill-opacity:1;stroke-width:0.26458335"
       d="m 392.2706,149.32579 c -10.93669,-4.0657 -20.46478,-11.60282 -26.99827,-21.35676 -2.10816,-3.1473 -5.26057,-9.61867 -6.42214,-13.18358 -3.66497,-11.24791 -3.65601,-23.065904 0.026,-34.255294 6.88259,-20.91602 25.48585,-35.67657 47.69259,-37.84116 16.37141,-1.5958 33.03543,4.41982 44.78148,16.16587 11.51592,11.51591 17.4446,27.96406 15.83448,43.930164 -0.38213,3.78927 -1.40315,8.68946 -2.51455,12.06814 -1.15875,3.5226 -4.32837,10.0081 -6.41004,13.11586 -5.58086,8.33176 -12.95177,14.76384 -21.88763,19.09983 -6.34298,3.07783 -8.67948,3.60397 -10.02685,2.25786 -0.54102,-0.54051 -0.56034,-0.83714 -0.69526,-10.66945 -0.13332,-9.71559 -0.16288,-10.18114 -0.75132,-11.83327 -0.33691,-0.94589 -1.08088,-2.40709 -1.65328,-3.24711 -0.69346,-1.01768 -0.92833,-1.5598 -0.70388,-1.62467 0.18526,-0.0535 1.58699,-0.29928 3.11496,-0.54608 5.38391,-0.86962 10.55307,-3.03993 13.80579,-5.79644 3.62058,-3.06827 6.25227,-7.99845 7.21912,-13.52425 1.52807,-8.733294 0.19962,-15.619604 -4.03025,-20.891684 l -1.02677,-1.27976 0.48272,-1.74084 c 0.66151,-2.3856 0.64647,-6.61013 -0.0336,-9.44673 -0.8045,-3.35542 -0.93523,-3.55036 -2.38094,-3.55036 -2.69647,0 -6.96666,1.55437 -11.21834,4.08353 l -2.81021,1.67168 -2.05426,-0.4732 c -4.172,-0.96102 -6.28382,-1.16956 -11.84385,-1.16956 -5.56003,0 -7.67186,0.20854 -11.84385,1.16956 l -2.05427,0.4732 -2.81021,-1.67168 c -4.25168,-2.52916 -8.52187,-4.08353 -11.21833,-4.08353 -1.44572,0 -1.57645,0.19494 -2.38094,3.55036 -0.68011,2.8366 -0.69515,7.06113 -0.0336,9.44673 l 0.48272,1.74084 -1.02677,1.27976 c -3.39957,4.23721 -4.97119,9.63122 -4.59962,15.7866 0.5941,9.841794 3.72951,16.152964 10.08651,20.302854 3.02768,1.9765 7.45246,3.55688 11.90465,4.25194 3.42944,0.5354 3.21847,0.3483 2.10426,1.86615 -0.97101,1.32278 -2.22047,4.37447 -2.23098,5.44892 -0.0136,1.39394 -6.3405,2.44108 -9.41288,1.55789 -2.84286,-0.81721 -4.86002,-2.45272 -6.83726,-5.54365 -1.26045,-1.9704 -3.0177,-3.61867 -4.96372,-4.65589 -3.23267,-1.723 -7.24135,-1.1541 -5.70466,0.80958 0.17728,0.22653 0.98072,0.89553 1.78542,1.48667 2.50828,1.84258 4.04888,3.7762 5.678,7.12651 1.73154,3.56093 3.14334,5.16692 5.65805,6.43635 2.62375,1.32446 4.65826,1.68067 8.6321,1.51133 1.89177,-0.0806 3.767,-0.22564 4.16719,-0.32227 l 0.7276,-0.17569 v 5.60449 c 0,3.33792 -0.11017,5.81035 -0.27242,6.11352 -0.35748,0.66795 -1.62873,1.31155 -2.55871,1.2954 -0.40741,-0.007 -1.65564,-0.35298 -2.77386,-0.76868 z m -0.86972,-16.24582 c -0.70004,-0.51189 -0.34228,-1.22889 0.61318,-1.22889 0.42331,0 0.92857,0.19148 1.12279,0.42551 0.30004,0.36152 0.27742,0.48087 -0.15046,0.79375 -0.63071,0.46118 -0.96519,0.46321 -1.58551,0.01 z m 4.09346,-0.43166 c -0.65982,-0.42062 0.0301,-1.1941 1.06512,-1.1941 1.0064,0 1.26494,0.41026 0.64758,1.02762 -0.48067,0.48067 -1.12204,0.54301 -1.7127,0.16648 z m -8.72845,-0.39699 c -0.46614,-0.56165 -0.13172,-1.19399 0.63146,-1.19399 0.78924,0 1.51555,0.66409 1.31057,1.19828 -0.19409,0.50577 -1.52115,0.50284 -1.94203,-0.004 z m -3.65405,-2.04066 c -0.17462,-0.17462 -0.3175,-0.59134 -0.3175,-0.92604 0,-0.45861 0.14993,-0.60854 0.60854,-0.60854 0.7754,0 1.24354,0.46814 1.24354,1.24354 0,0.45861 -0.14993,0.60854 -0.60854,0.60854 -0.3347,0 -0.75141,-0.14287 -0.92604,-0.3175 z m -2.75016,-3.52613 c -0.2325,-0.51029 -0.22944,-0.74385 0.013,-0.98624 0.45998,-0.45998 1.20892,0.0842 1.31281,0.95396 0.067,0.56109 -0.0265,0.70091 -0.4687,0.70091 -0.33406,0 -0.67283,-0.26428 -0.85706,-0.66863 z m -2.206,-3.06217 c -0.26907,-0.84776 0.28032,-1.22684 0.92824,-0.64048 0.72627,0.65726 0.67751,1.19628 -0.10821,1.19628 -0.42153,0 -0.7045,-0.19178 -0.82003,-0.5558 z m -2.38705,-2.11308 c -0.0978,-0.15821 -0.042,-0.42342 0.12396,-0.58937 0.33233,-0.33233 1.0988,0.005 1.28565,0.56518 0.13219,0.39655 -1.1657,0.41882 -1.40961,0.0242 z"
       id="path866"
       inkscape:connector-curvature="0"
       inkscape:export-xdpi="326"
       inkscape:export-ydpi="326" />
    <g
       id="g4587"
       transform="translate(73.766389,-42.228585)">
      <path
         style="fill:#fdfdfe;stroke-width:0.16387098"
         d="m 202.54646,311.74108 v -98.32259 h 98.32259 98.32258 v 98.32259 98.32258 h -98.32258 -98.32259 z"
         id="path4603"
         inkscape:connector-curvature="0" />
      <path
         style="fill:#d6e6f0;stroke-width:0.16387098"
         d="m 293.24904,409.87606 c -5.0514,-0.27691 -9.31911,-0.88634 -14.33871,-2.0476 -33.01755,-7.63844 -59.52468,-31.23778 -70.96826,-63.18319 -2.18491,-6.09931 -3.97889,-13.61717 -4.74098,-19.86761 -0.87719,-7.1944 -0.87228,-19.14859 0.0107,-26.1938 1.93216,-15.41581 8.13873,-31.11112 17.45201,-44.13302 11.79311,-16.48923 28.23408,-28.84191 47.53299,-35.71323 6.10352,-2.17314 14.83238,-4.20934 20.6277,-4.81186 7.48984,-0.7787 20.81241,-0.58676 27.03871,0.38955 10.21629,1.60196 19.49641,4.53934 28.71472,9.08891 24.6884,12.18463 43.32656,34.44049 50.92241,60.80654 2.73534,9.4947 3.6947,16.64321 3.6947,27.53033 0,6.7301 -0.35537,11.78065 -1.16456,16.55096 -4.3397,25.5828 -18.70407,48.51547 -39.87123,63.65424 -13.05611,9.33775 -28.90333,15.59115 -44.25365,17.46275 -5.066,0.61768 -14.15845,0.82325 -20.65659,0.46703 z m 56.73014,-60.66936 c -0.0474,-0.12359 -2.07004,-2.87048 -4.4947,-6.1042 -2.42466,-3.23372 -9.14174,-12.20286 -14.92684,-19.93142 -5.78511,-7.72857 -10.58894,-14.05194 -10.6752,-14.05194 -0.19728,0 0.9567,-0.99499 -15.24436,13.144 -1.59018,1.38778 -2.33069,1.93089 -2.63341,1.9314 -0.46941,8.2e-4 -0.45927,0.009 -5.15541,-4.09523 -1.8053,-1.57771 -4.01756,-3.50671 -4.91613,-4.28668 -0.89857,-0.77997 -2.99123,-2.60509 -4.65036,-4.05581 -1.65913,-1.45072 -3.0971,-2.63598 -3.19548,-2.6339 -0.0984,0.002 -4.13819,5.29306 -8.97733,11.75774 -18.56864,24.80612 -21.27188,28.42634 -21.27188,28.48758 0,0.0347 21.65114,0.0632 48.11366,0.0632 40.69198,0 48.10036,-0.0347 48.02744,-0.2247 z m -91.09475,-13.90917 c 17.21981,-23.00991 21.605,-28.88016 21.7193,-29.0746 0.0709,-0.12053 -2.9922,-2.90299 -8.20533,-7.45365 -4.57511,-3.99373 -9.8301,-8.58055 -11.67774,-10.19294 -1.84765,-1.61239 -4.35488,-3.80128 -5.57162,-4.86421 -5.98945,-5.2323 -5.64326,-4.95897 -5.75935,-4.54709 -0.12249,0.43463 -0.18226,68.79152 -0.0601,68.79152 0.0447,0 4.34443,-5.69656 9.55489,-12.65903 z m 95.66262,-56.45695 c -0.0398,-0.0398 -2.04162,1.64991 -4.4484,3.75499 -2.40677,2.10509 -5.05691,4.41737 -5.88918,5.13841 -0.83227,0.72103 -2.56219,2.23274 -3.84427,3.35935 -1.28207,1.12662 -2.71759,2.38023 -3.19004,2.78581 -0.47245,0.40558 -2.75833,2.39661 -5.07973,4.42452 -2.3214,2.0279 -4.89541,4.26826 -5.72001,4.97858 -1.9313,1.66364 -3.0567,2.71677 -3.05354,2.85745 10e-4,0.0614 5.05783,6.85909 11.23655,15.1059 6.17872,8.24681 12.93631,17.2802 15.01686,20.0742 2.08055,2.794 4.04803,5.40987 4.37216,5.81306 l 0.58934,0.73306 0.0414,-34.47644 c 0.0227,-18.96205 0.009,-34.50905 -0.0311,-34.54889 z m -50.74275,37.20211 c 0.8744,-0.78863 2.43367,-2.16332 3.46503,-3.05486 1.03136,-0.89154 2.61262,-2.26535 3.51391,-3.0529 5.97921,-5.22469 8.50723,-7.42829 9.66219,-8.42223 0.72444,-0.62345 1.65203,-1.43461 2.06132,-1.80258 0.40928,-0.36798 1.47854,-1.30404 2.37612,-2.08014 0.89759,-0.7761 4.95852,-4.31571 9.02428,-7.8658 4.06577,-3.5501 10.09417,-8.80767 13.39646,-11.68349 3.30228,-2.87583 6.00415,-5.29087 6.00415,-5.36678 0,-0.0759 -23.08123,-0.138 -51.29162,-0.138 -30.66957,0 -51.29161,0.0599 -51.29161,0.14899 0,0.17366 0.42636,0.55405 9.02598,8.05275 2.02071,1.76203 6.92332,6.03906 10.8947,9.50452 3.97137,3.46546 9.98134,8.70891 13.35548,11.65211 3.37414,2.94319 8.75264,7.64204 11.95223,10.44189 3.19958,2.79985 5.91735,5.09283 6.03948,5.09551 0.12214,0.003 0.93749,-0.64036 1.8119,-1.42899 z"
         id="path4601"
         inkscape:connector-curvature="0" />
      <path
         style="fill:#a8cce3;stroke-width:0.16387098"
         d="m 293.08517,409.81182 c -12.53227,-0.82869 -25.67003,-4.57932 -37.52645,-10.71324 -28.13655,-14.55642 -47.5524,-41.88416 -52.11375,-73.34991 -1.16799,-8.0572 -1.16799,-19.95799 0,-28.01519 5.73978,-39.59499 34.7823,-71.78104 73.49138,-81.44603 5.95171,-1.48604 10.80733,-2.25663 16.5585,-2.62786 7.0762,-0.45675 15.46565,-0.20033 21.34671,0.65245 33.61216,4.87392 62.1811,26.49485 75.99034,57.50936 3.64682,8.19048 6.28412,17.42797 7.53731,26.40032 1.06039,7.59205 1.06039,19.44666 0,27.03871 -3.64791,26.11774 -17.6404,49.74946 -38.73514,65.41928 -13.23067,9.82813 -28.47817,16.12556 -44.75743,18.48543 -5.81981,0.84366 -14.78796,1.1098 -21.79147,0.64668 z m 57.27291,-60.37747 c 0,-0.23045 -30.27664,-40.64295 -30.44929,-40.64295 -0.13698,0 -1.47539,1.15345 -11.58362,9.98287 -6.25699,5.46542 -6.06656,5.31333 -6.50666,5.19638 -0.20675,-0.0549 -1.78349,-1.3358 -3.50385,-2.84635 -9.60793,-8.43614 -14.04344,-12.25097 -14.24425,-12.25097 -0.12405,0 -6.65429,8.59094 -14.51163,19.09097 -7.85735,10.50003 -14.68261,19.61225 -15.16727,20.24938 -0.48465,0.63712 -0.88118,1.20862 -0.88118,1.27 0,0.0614 21.79075,0.11159 48.42388,0.11159 31.58191,0 48.42387,-0.056 48.42387,-0.16092 z M 265.10933,327.3279 c 8.61058,-11.50173 15.68507,-21.02494 15.72109,-21.1627 0.061,-0.23325 -1.96592,-2.03626 -18.38592,-16.3549 -5.62457,-4.90476 -7.93475,-6.92155 -9.4175,-8.22148 -3.22849,-2.83045 -3.63707,-3.15547 -3.7831,-3.00944 -0.1068,0.1068 -0.24798,60.44071 -0.16246,69.42782 0.003,0.29792 0.0693,0.42021 0.18834,0.34662 0.10118,-0.0625 7.22898,-9.5242 15.83955,-21.02592 z m 89.67327,-13.94812 c 0,-19.92643 -0.0617,-34.90451 -0.14388,-34.90451 -0.0791,0 -2.01486,1.63498 -4.30161,3.6333 -6.7619,5.90898 -13.7737,12.0249 -19.88921,17.34803 -3.15445,2.74572 -6.13074,5.36516 -6.61399,5.82098 l -0.87863,0.82877 11.2891,15.06672 c 6.20901,8.28669 13.31459,17.77673 15.79017,21.08897 2.47559,3.31225 4.55664,6.02226 4.62456,6.02226 0.0679,0 0.12349,-15.70703 0.12349,-34.90452 z m -48.98461,1.18776 c 3.99348,-3.49292 9.3631,-8.17867 17.52011,-15.28878 2.83836,-2.47408 6.67909,-5.82569 8.53495,-7.44801 1.85586,-1.62232 5.28253,-4.60887 7.61483,-6.63677 2.3323,-2.02791 4.65138,-4.05581 5.15351,-4.50645 0.50213,-0.45065 2.77075,-2.43327 5.04137,-4.40583 2.27063,-1.97256 4.08903,-3.65019 4.04091,-3.72807 -0.13056,-0.21124 -103.47076,-0.18399 -103.47076,0.0273 0,0.0929 0.23967,0.37705 0.53258,0.63149 0.82394,0.71568 7.9445,6.92693 14.37968,12.54334 3.19958,2.79249 7.21852,6.29998 8.93097,7.79442 1.71245,1.49444 5.14145,4.48726 7.62,6.65072 2.47855,2.16346 7.16116,6.24917 10.40581,9.07937 3.24464,2.8302 6.76921,5.90591 7.83236,6.83493 1.06316,0.92901 1.98493,1.68897 2.04839,1.68881 0.0635,-1.7e-4 1.78034,-1.45658 3.81529,-3.23646 z"
         id="path4599"
         inkscape:connector-curvature="0" />
      <path
         style="fill:#89bad9;stroke-width:0.16387098"
         d="m 296.19872,409.95492 c -4.95299,-0.30027 -9.10089,-0.77223 -12.85309,-1.46249 -13.40955,-2.46678 -25.91798,-7.52841 -37.12474,-15.0228 -27.28601,-18.24724 -43.67126,-48.9114 -43.67126,-81.72855 0,-32.81857 16.38167,-63.47945 43.66844,-81.73238 13.9261,-9.31557 29.26036,-14.66428 46.70323,-16.29045 3.43265,-0.32002 13.18855,-0.27355 16.79678,0.08 21.72966,2.12922 41.25603,10.69663 57.18482,25.09045 17.18478,15.52876 28.50134,37.14636 31.45182,60.08121 0.60064,4.66881 0.74852,7.19205 0.74852,12.77116 0,5.5791 -0.14788,8.10234 -0.74852,12.77115 -3.24025,25.18722 -16.42013,48.44446 -36.44374,64.30864 -17.49051,13.85727 -39.37721,21.40229 -61.53355,21.21249 -1.84764,-0.0159 -3.72806,-0.0511 -4.17871,-0.0784 z m 54.30934,-60.48255 c -0.0154,-0.31832 -30.27863,-40.7215 -30.56293,-40.80332 -0.0983,-0.0283 -2.31057,1.81064 -4.91613,4.08653 -2.60555,2.27588 -6.53736,5.71088 -8.73734,7.63332 -3.03126,2.64885 -4.08907,3.48341 -4.36787,3.44603 -0.20235,-0.0271 -1.97885,-1.45815 -3.94778,-3.18002 -15.11551,-13.21887 -13.89243,-12.19973 -14.2187,-11.84783 -0.11736,0.12657 -3.93285,5.2077 -8.47888,11.29141 -4.54602,6.08371 -11.34534,15.17155 -15.10958,20.19519 -3.76425,5.02364 -6.79799,9.2085 -6.74163,9.29968 0.0687,0.11119 16.07166,0.16578 48.59859,0.16578 46.08284,0 48.49545,-0.0143 48.48225,-0.28677 z m -88.04788,-18.39225 c 7.10981,-9.50736 14.1985,-18.9832 15.75263,-21.05742 1.55414,-2.07422 2.82619,-3.85538 2.82678,-3.95814 6.5e-4,-0.10276 -2.77983,-2.60998 -6.17871,-5.57161 -3.39887,-2.96163 -6.59132,-5.75349 -7.09432,-6.20413 -0.50301,-0.45065 -2.82374,-2.47855 -5.15718,-4.50646 -2.33344,-2.0279 -5.76182,-5.01445 -7.61863,-6.63677 -5.37368,-4.69505 -5.53769,-4.83419 -5.69836,-4.83419 -0.0919,0 -0.19608,4.4585 -0.26146,11.18419 -0.14339,14.75037 -0.14027,59.03055 0.004,59.17498 0.0622,0.0622 0.19978,0.0192 0.30565,-0.0956 0.10588,-0.11481 6.00962,-7.98749 13.11943,-17.49486 z m 92.40435,-17.70034 c 0,-24.89081 -0.051,-34.97613 -0.17701,-35.01814 -0.0974,-0.0325 -3.52636,2.86551 -7.62,6.43993 -9.83766,8.58986 -11.0284,9.62861 -16.7017,14.56976 -6.58439,5.73467 -7.37419,6.45557 -7.37419,6.73092 0,0.13105 5.39466,7.44494 11.98814,16.25307 6.59348,8.80813 13.68462,18.28453 15.75809,21.05865 2.07346,2.77413 3.8502,5.01711 3.9483,4.98441 0.12784,-0.0426 0.17837,-9.96376 0.17837,-35.0186 z m -50.97153,3.00304 c 0.79921,-0.70531 1.7569,-1.54049 2.1282,-1.85594 0.3713,-0.31545 1.81588,-1.57158 3.21018,-2.79141 1.3943,-1.21982 3.97305,-3.47166 5.73057,-5.00408 7.01807,-6.11924 13.85044,-12.0817 16.97185,-14.81097 1.80874,-1.58151 5.19776,-4.53467 7.53115,-6.56257 2.3334,-2.02791 4.65379,-4.05581 5.15642,-4.50645 0.50264,-0.45065 2.81019,-2.46773 5.12788,-4.48241 2.3177,-2.01468 4.21399,-3.72129 4.21399,-3.79247 0,-0.0712 -0.11664,-0.17418 -0.25921,-0.22888 -0.42314,-0.16238 -103.36371,-0.11057 -103.62077,0.0521 -0.26771,0.16947 -0.55757,-0.10477 5.14772,4.87017 6.20952,5.41462 17.27653,15.07162 26.46516,23.09335 2.47855,2.16379 7.16116,6.24997 10.40581,9.0804 3.24464,2.83044 6.76976,5.90683 7.83359,6.83644 1.55711,1.36065 1.98982,1.66045 2.2193,1.53763 0.15678,-0.0839 0.93895,-0.72963 1.73816,-1.43495 z"
         id="path4597"
         inkscape:connector-curvature="0" />
      <path
         style="fill:#6fadd4;stroke-width:0.16387098"
         d="m 296.44453,409.96452 c -20.39494,-1.16619 -38.95091,-7.88324 -54.81484,-19.8424 -20.41919,-15.39316 -34.03003,-38.25771 -37.92812,-63.71459 -0.8088,-5.28196 -1.04586,-8.57467 -1.05002,-14.58452 -0.004,-6.12195 0.15737,-8.45854 0.98038,-14.17484 3.15805,-21.93471 13.71481,-42.21357 29.91571,-57.46613 14.84163,-13.97287 33.734,-23.00805 53.88399,-25.76974 5.51797,-0.75627 7.5992,-0.89458 13.43742,-0.89299 5.8432,0.002 8.16914,0.15589 13.60129,0.9023 18.01688,2.47563 35.55759,10.28006 49.57097,22.05574 18.63095,15.6559 30.75587,37.57646 34.15267,61.74437 0.70455,5.01284 0.89464,7.85075 0.90005,13.43742 0.006,5.98786 -0.25435,9.45482 -1.14351,15.24 -4.81686,31.34035 -24.93639,58.78088 -53.40986,72.8444 -13.4897,6.6628 -27.41372,10.02214 -42.36065,10.22004 -2.56867,0.034 -5.14964,0.0344 -5.73548,0.002 z m 53.74661,-60.14741 c 0.27208,-0.0544 0.49288,-0.1819 0.49068,-0.28329 -0.002,-0.1014 -2.29479,-3.24465 -5.09465,-6.985 -22.56308,-30.14228 -25.42483,-33.92129 -25.68772,-33.92129 -0.1554,0 -1.65012,1.1983 -3.3216,2.6629 -10.27698,9.00498 -14.13812,12.34829 -14.41017,12.47754 -0.24573,0.11676 -0.51514,-0.0339 -1.3358,-0.74699 -0.5654,-0.49128 -3.37226,-2.93945 -6.23748,-5.44037 -5.40662,-4.71921 -6.61028,-5.76749 -8.91592,-7.76502 -0.75422,-0.65343 -1.49791,-1.18494 -1.65263,-1.18112 -0.15663,0.004 -0.72748,0.60308 -1.28794,1.35194 -15.21926,20.33516 -29.3528,39.24638 -29.45014,39.40541 -0.0818,0.13365 0.007,0.25915 0.253,0.35663 0.41841,0.16594 95.82509,0.23372 96.65037,0.0687 z M 250.09079,347.7422 c 0.41755,-0.55807 7.4699,-9.98247 15.6719,-20.94312 8.202,-10.96064 15.03506,-20.11515 15.18458,-20.34334 0.25934,-0.3958 0.25455,-0.43357 -0.10415,-0.82029 -0.20681,-0.22296 -1.81398,-1.65372 -3.5715,-3.17946 -2.99809,-2.60271 -8.26807,-7.19495 -15.4858,-13.49426 -1.71245,-1.49455 -5.20513,-4.54251 -7.7615,-6.77324 -2.55637,-2.23074 -4.73176,-4.02796 -4.83419,-3.99384 -0.13781,0.0459 -0.21731,9.15791 -0.30566,35.03488 -0.0657,19.23506 -0.0834,35.13615 -0.0393,35.33576 0.11348,0.51404 0.37398,0.34191 1.24562,-0.82309 z m 104.81508,-34.32145 c -0.032,-27.24322 -0.0858,-35.19129 -0.23803,-35.19129 -0.10818,0 -1.54615,1.17785 -3.19548,2.61745 -1.64934,1.4396 -5.32167,4.64401 -8.16073,7.1209 -5.87425,5.1249 -10.95402,9.5607 -16.60575,14.50063 -2.71932,2.37684 -3.8844,3.49545 -3.83549,3.6825 0.11967,0.45762 31.64217,42.4611 31.86593,42.4611 0.17142,0 0.20316,-6.58687 0.16955,-35.19129 z m -51.60069,3.59351 c 0.5979,-0.52466 4.03677,-3.52615 7.64193,-6.66998 3.60516,-3.14383 7.66097,-6.68184 9.0129,-7.86224 7.63847,-6.66929 22.13723,-19.31993 27.12065,-23.66365 2.11803,-1.84615 4.56995,-3.98582 5.44871,-4.75481 0.87876,-0.769 1.59774,-1.49205 1.59774,-1.60679 0,-0.16847 -10.02607,-0.20862 -52.1013,-0.20862 -33.44076,0 -52.13644,0.0569 -52.19942,0.15877 -0.0905,0.14648 3.95158,3.71282 26.37978,23.27478 4.49506,3.92061 12.07892,10.53895 16.85301,14.70742 4.77409,4.16847 8.78789,7.57903 8.91954,7.57903 0.13165,0 0.72856,-0.42926 1.32646,-0.95391 z"
         id="path4595"
         inkscape:connector-curvature="0" />
      <path
         style="fill:#4999cc;stroke-width:0.16387098"
         d="m 296.93614,409.95678 c -0.67597,-0.0229 -1.89271,-0.11767 -2.70387,-0.21047 -0.81116,-0.0928 -2.286,-0.24822 -3.27742,-0.34534 -15.76181,-1.54424 -31.35555,-7.15042 -44.65484,-16.05408 -15.93537,-10.6685 -28.25339,-25.53937 -35.77952,-43.1947 -4.50285,-10.5631 -7.05375,-21.73947 -7.83192,-34.31434 -0.17693,-2.85913 -0.0763,-8.91528 0.18239,-10.97936 0.0847,-0.67596 0.23595,-2.07706 0.33605,-3.11354 1.14314,-11.83615 4.95934,-24.59128 10.5803,-35.36326 14.45147,-27.6947 41.13069,-46.82281 72.05706,-51.66249 3.33396,-0.52174 7.71389,-0.96436 11.53272,-1.16546 7.09635,-0.37369 16.72664,0.53802 24.79518,2.3474 26.2928,5.8962 48.87282,22.12312 62.74326,45.08987 7.32612,12.13062 12.05698,26.14741 13.53378,40.09845 0.13834,1.30687 0.34071,3.07668 0.44971,3.93291 0.26516,2.08279 0.26239,11.38461 -0.004,13.43741 -0.11112,0.85623 -0.31345,2.62604 -0.44963,3.93291 -3.13644,30.09813 -20.67873,57.60343 -46.7993,73.37857 -16.27133,9.82685 -35.58699,14.83512 -54.70995,14.18552 z m 53.84916,-60.26621 c 0.0537,-0.14003 -3.413,-4.91221 -8.71995,-12.00355 -4.84502,-6.47411 -11.75148,-15.7022 -15.34768,-20.50688 -5.00102,-6.68157 -6.60996,-8.72388 -6.84224,-8.68517 -0.16703,0.0278 -1.9124,1.4554 -3.87859,3.17234 -1.96619,1.71695 -5.85111,5.10908 -8.63316,7.53807 -2.78205,2.42899 -5.16017,4.44017 -5.28471,4.4693 -0.30454,0.0712 -0.0174,0.31202 -9.20073,-7.7166 -4.45703,-3.89661 -8.27453,-7.1906 -8.48334,-7.31999 -0.50807,-0.3148 -0.57641,-0.25097 -2.52407,2.35778 -0.87797,1.17596 -7.66852,10.24972 -15.09012,20.16392 -7.42161,9.91419 -13.52589,18.19172 -13.56508,18.39451 l -0.0712,0.36871 h 48.77587 c 41.95867,0 48.78832,-0.0325 48.86505,-0.23244 z m -100.2827,-2.34853 c 11.68232,-15.49277 30.70193,-41.07902 30.70193,-41.30196 0,-0.16594 -0.69089,-0.89082 -1.59774,-1.67637 -1.78229,-1.54388 -6.7555,-5.87851 -14.37968,-12.53329 -9.77559,-8.53263 -15.41185,-13.43907 -15.71113,-13.67671 -0.78947,-0.6269 -0.75791,-2.10781 -0.75791,35.55782 0,19.3455 0.0492,35.22279 0.10925,35.28288 0.20772,0.20772 0.31256,0.1018 1.63528,-1.65237 z m 104.56448,-33.80063 c 0.0227,-20.64032 -0.0222,-35.24419 -0.10892,-35.38093 -0.20963,-0.33072 -0.22839,-0.31596 -5.82911,4.58719 -2.70387,2.3671 -6.87029,6.00883 -9.25871,8.09273 -2.38842,2.0839 -7.24084,6.3196 -10.78315,9.41267 -3.61373,3.15542 -6.4188,5.72276 -6.39097,5.84931 0.0273,0.12405 7.20143,9.77842 15.94255,21.45415 10.44793,13.95558 15.97803,21.21223 16.14129,21.18079 0.22081,-0.0425 0.25263,-3.94409 0.28702,-35.19591 z m -52.27302,4.04785 c 0.33824,-0.29853 2.05295,-1.79455 3.81047,-3.32449 4.49125,-3.9097 11.70069,-10.19761 16.14129,-14.07808 2.07297,-1.81149 7.01368,-6.12365 10.97936,-9.58259 3.96567,-3.45894 7.98461,-6.96609 8.93096,-7.79365 0.94636,-0.82757 3.89604,-3.39823 6.55484,-5.71257 2.65881,-2.31435 4.90794,-4.31754 4.99807,-4.45154 0.11759,-0.17482 0.0944,-0.28788 -0.0819,-0.40032 -0.15502,-0.0988 -19.4398,-0.15763 -52.21381,-0.15921 -44.97525,-0.002 -51.99429,0.0292 -52.16336,0.23289 -0.20342,0.2451 -0.51379,-0.032 20.48491,18.28816 13.52249,11.79759 20.45246,17.84442 25.88194,22.58364 3.10945,2.71414 5.74551,4.93609 5.85791,4.93767 0.1124,0.002 0.48111,-0.24138 0.81936,-0.53991 z"
         id="path4593"
         inkscape:connector-curvature="0" />
      <path
         style="fill:#2a89c7;stroke-width:0.16387098"
         d="m 297.26388,409.91121 c -1.30687,-0.0589 -2.26551,-0.13124 -2.13032,-0.16072 0.13519,-0.0295 -0.95944,-0.15458 -2.43251,-0.27798 -35.97328,-3.01329 -67.56781,-25.71775 -81.84033,-58.81208 -4.30187,-9.97494 -7.21016,-21.77402 -7.76761,-31.51356 -0.0583,-1.0191 -0.15677,-1.77085 -0.21876,-1.67056 -0.17854,0.28889 -0.31698,-5.44211 -0.21002,-8.69403 0.0548,-1.66592 0.15662,-2.86531 0.23302,-2.74484 0.0808,0.12747 0.13672,-0.16883 0.13821,-0.73296 0.004,-1.35457 0.4348,-5.32628 0.92021,-8.47566 6.28529,-40.78002 37.40828,-73.27869 77.82231,-81.26216 4.36656,-0.86258 10.39605,-1.65308 12.65437,-1.65907 0.57425,-0.002 0.86156,-0.0566 0.73002,-0.14002 -0.29894,-0.18954 5.03864,-0.32651 8.66831,-0.22244 1.6937,0.0486 2.86888,0.1438 2.74484,0.22244 -0.13154,0.0834 0.15577,0.1385 0.73002,0.14002 2.01367,0.005 8.48539,0.81528 11.91695,1.49141 23.6894,4.66764 44.37068,17.29398 58.9295,35.97768 11.71525,15.03448 19.05349,33.76722 20.41903,52.12485 0.10874,1.46183 0.24475,2.58175 0.30226,2.48871 0.16682,-0.26994 0.29603,5.47237 0.19599,8.71084 -0.0503,1.628 -0.13849,2.88387 -0.19599,2.79083 -0.0575,-0.093 -0.19352,1.02688 -0.30226,2.48871 -0.23285,3.13022 -0.83414,7.41699 -1.52212,10.85142 -7.81973,39.03692 -38.06652,69.284 -77.08899,77.0897 -3.43965,0.68802 -7.7249,1.28884 -10.85142,1.52141 -1.46183,0.10874 -2.56796,0.25483 -2.45807,0.32466 0.1099,0.0698 -0.54446,0.1281 -1.45413,0.12947 -0.90968,0.002 -2.532,0.0292 -3.60517,0.0618 -1.07316,0.0326 -3.02047,0.0111 -4.32734,-0.0479 z m 53.7064,-60.234 c 0.0545,-0.46234 -30.56268,-41.27898 -31.01027,-41.34064 -0.21634,-0.0298 -0.88516,0.44363 -1.96774,1.39291 -10.31083,9.04115 -15.84094,13.81012 -16.01322,13.80924 -0.11479,-6.5e-4 -3.05545,-2.48937 -6.53478,-5.53064 -3.47934,-3.04127 -7.33849,-6.41449 -8.57589,-7.49604 -2.42774,-2.12196 -2.91121,-2.42382 -3.26723,-2.03996 -0.12109,0.13056 -4.18927,5.5468 -9.0404,12.03609 -4.85114,6.48929 -11.66698,15.59642 -15.14632,20.23807 -3.47934,4.64164 -6.38496,8.53476 -6.45693,8.65137 -0.0734,0.1189 -0.0438,0.31694 0.0674,0.45092 0.17302,0.20847 6.4196,0.23364 49.0525,0.19766 48.71672,-0.0411 48.85434,-0.0422 48.89288,-0.36898 z m -90.4682,-15.44484 c 6.19048,-8.26934 13.41788,-17.92494 16.06087,-21.45689 2.643,-3.53194 4.80545,-6.56628 4.80545,-6.74297 0,-0.21546 -1.36268,-1.50814 -4.13774,-3.92521 -2.27576,-1.98217 -5.43247,-4.73658 -7.01491,-6.12089 -1.58244,-1.38432 -4.48866,-3.91805 -6.45828,-5.6305 -5.54203,-4.81844 -10.47405,-9.12635 -12.50556,-10.92307 -1.12734,-0.99706 -1.95862,-1.61399 -2.13032,-1.58101 -0.26017,0.05 -0.28917,0.683 -0.38139,8.32746 -0.13962,11.5727 -0.16953,62.84621 -0.0367,62.97899 0.0601,0.0601 0.20689,0.10925 0.32622,0.10925 0.11934,0 5.28192,-6.76582 11.47241,-15.03516 z m 94.61231,14.45094 c 0.21879,-0.57545 0.21879,-69.86773 0,-70.44318 -0.28079,-0.73856 0.73893,-1.54042 -10.40986,8.18585 -19.94482,17.39998 -21.74774,18.98088 -22.01832,19.3069 -0.16176,0.19491 -0.16592,0.33214 -0.0184,0.60775 0.10479,0.1958 3.11974,4.27476 6.69989,9.06435 12.46193,16.6718 24.79865,33.12701 25.04942,33.4119 0.34506,0.39203 0.50944,0.36054 0.69729,-0.13357 z m -51.08995,-31.97056 c 1.01347,-0.87074 2.17654,-1.88469 2.5846,-2.25323 0.40807,-0.36853 2.98825,-2.62422 5.73375,-5.01264 2.74549,-2.38842 6.80607,-5.92803 9.0235,-7.86581 2.21744,-1.93777 7.11772,-6.2148 10.88951,-9.50451 3.77179,-3.28971 9.25877,-8.07687 12.19327,-10.63813 2.9345,-2.56125 6.38628,-5.57384 7.67062,-6.69462 1.40017,-1.22187 2.33516,-2.15704 2.33516,-2.33561 0,-0.24512 -0.18122,-0.31598 -1.02419,-0.40049 -0.56331,-0.0565 -24.12017,-0.0808 -52.34859,-0.054 -38.49773,0.0365 -51.37163,0.0959 -51.51343,0.23771 -0.11432,0.11432 -0.13375,0.28278 -0.0492,0.42618 0.0769,0.13042 2.16294,1.99951 4.63557,4.15353 2.47263,2.15402 7.49421,6.53424 11.15906,9.73382 3.66486,3.19959 9.45429,8.25091 12.8654,11.22517 3.41112,2.97425 10.10777,8.8183 14.88146,12.98677 4.77368,4.16847 8.77873,7.57903 8.90011,7.57903 0.12138,0 1.04989,-0.71242 2.06336,-1.58316 z"
         id="path4591"
         inkscape:connector-curvature="0" />
      <path
         style="fill:#1e85c7;stroke-width:0.16387098"
         d="m 297.91937,409.90513 c -2.48785,-0.0917 -2.57295,-0.10437 -1.06516,-0.15894 l 1.63871,-0.0593 -2.54,-0.13166 c -25.54823,-1.32424 -49.31208,-12.3977 -66.76553,-31.11136 -5.67444,-6.08416 -10.51795,-12.83216 -14.4583,-20.14336 -7.22435,-13.40456 -11.11462,-27.66085 -11.74376,-43.03621 -0.042,-1.02679 -0.0536,-0.97522 -0.11081,0.49161 -0.0567,1.45608 -0.074,1.32367 -0.155,-1.18806 -0.0501,-1.55473 -0.0501,-4.09882 0,-5.65355 0.0808,-2.50658 0.0983,-2.64115 0.15448,-1.18806 0.0515,1.33077 0.072,1.43855 0.10954,0.57354 0.62732,-14.46682 3.98453,-27.68793 10.174,-40.06645 3.04664,-6.09306 6.87623,-12.22089 10.29233,-16.46903 2.66774,-3.3175 3.38571,-4.17256 4.81122,-5.72986 3.63683,-3.97305 7.5834,-7.67687 11.64795,-10.93151 2.31928,-1.85713 6.97247,-5.15686 8.93245,-6.33429 0.72022,-0.43267 1.6782,-1.01215 2.12884,-1.28775 0.45065,-0.27559 1.99923,-1.14242 3.44129,-1.92627 12.63696,-6.86899 26.94213,-10.87323 41.5413,-11.62804 2.53544,-0.13108 2.53705,-0.13142 0.90129,-0.18616 -1.40548,-0.047 -1.23639,-0.068 1.18806,-0.14742 1.55473,-0.0509 4.09882,-0.0509 5.65355,0 2.51752,0.0825 2.6475,0.0996 1.18806,0.15626 l -1.63871,0.0637 1.39291,0.0472 c 6.13849,0.20816 13.53934,1.26888 19.91032,2.85364 2.38227,0.59258 7.47951,2.08904 8.33685,2.44756 0.19157,0.0801 1.27009,0.48451 2.3967,0.89866 2.26381,0.83219 2.95413,1.12028 6.30903,2.6329 22.74229,10.25378 40.97237,29.45728 50.31015,52.99653 4.15204,10.46676 6.34587,20.90552 6.85342,32.61032 0.0375,0.86501 0.0581,0.75723 0.10953,-0.57354 0.0562,-1.45309 0.0737,-1.31852 0.15449,1.18806 0.0501,1.55473 0.0501,4.09882 0,5.65355 -0.0785,2.4352 -0.099,2.59977 -0.14772,1.18806 l -0.0566,-1.63871 -0.12672,2.45724 c -0.79849,15.48394 -5.21445,30.54091 -12.86231,43.85618 -14.66008,25.52387 -39.84589,43.05046 -68.83813,47.90384 -4.03588,0.67562 -9.0964,1.1965 -12.33187,1.26933 l -1.41008,0.0317 1.63871,0.10041 c 1.60656,0.0984 1.59008,0.10102 -0.83983,0.13213 -1.36321,0.0175 -2.69056,0.0554 -2.94968,0.0842 -0.25912,0.0289 -1.68787,0.008 -3.175,-0.0471 z m 53.22482,-60.1542 c 0.0379,-0.32529 -0.68027,-1.39647 -3.24106,-4.83419 -1.80937,-2.42897 -3.45945,-4.63753 -3.66684,-4.90792 -0.20739,-0.27039 -1.17602,-1.56087 -2.15251,-2.86774 -0.97648,-1.30687 -1.96616,-2.62702 -2.19927,-2.93365 -0.23312,-0.30664 -1.06265,-1.41277 -1.84341,-2.45807 -2.06563,-2.76552 -5.09606,-6.79745 -7.03829,-9.36434 -0.91511,-1.20943 -4.3495,-5.83193 -4.8157,-6.48168 -0.46438,-0.64721 -4.54228,-6.08797 -5.4226,-7.23485 -0.77523,-1.00998 -0.40093,-1.26261 -8.17869,5.51998 -1.26181,1.10036 -2.88878,2.52999 -3.6155,3.17695 -0.72672,0.64697 -1.97159,1.72937 -2.76639,2.40533 -0.7948,0.67597 -2.03547,1.76366 -2.75706,2.4171 -0.72158,0.65344 -1.36486,1.18806 -1.42951,1.18806 -0.0646,0 -0.81485,-0.60837 -1.66711,-1.35193 -0.85226,-0.74357 -2.5737,-2.23684 -3.82542,-3.31839 -2.93395,-2.53506 -3.96217,-3.43545 -4.66869,-4.08827 -0.50315,-0.4649 -3.4685,-3.0393 -4.82453,-4.18846 -0.26507,-0.22464 -0.94532,-0.83245 -1.51167,-1.35069 -1.13363,-1.03734 -1.59901,-1.16221 -2.1375,-0.57355 -0.1855,0.20279 -1.85111,2.39662 -3.70135,4.87516 -1.85024,2.47855 -3.5568,4.76455 -3.79237,5.08 -0.23556,0.31546 -0.88856,1.16349 -1.4511,1.88452 -0.56255,0.72103 -1.20316,1.56907 -1.4236,1.88452 -0.22043,0.31545 -4.88329,6.56376 -10.36192,13.88514 -5.47861,7.32137 -9.96112,13.40877 -9.96112,13.52755 0,0.11877 0.0886,0.30457 0.19691,0.41287 0.15262,0.15261 11.22228,0.18764 49.20226,0.15568 l 49.00535,-0.0412 z m -96.78321,-6.97812 c 2.82185,-3.75236 5.2407,-6.97857 5.37522,-7.16936 0.33827,-0.47976 4.47582,-6.00935 11.15632,-14.90972 3.10293,-4.13401 6.48972,-8.67157 7.5262,-10.08345 1.03649,-1.41188 2.16459,-2.93015 2.50689,-3.37393 0.43102,-0.55878 0.60736,-0.94018 0.57355,-1.24049 -0.0543,-0.48251 -0.15922,-0.5757 -25.60122,-22.7454 -1.89902,-1.65478 -3.92997,-3.42459 -4.51321,-3.93291 -0.58325,-0.50832 -1.2763,-1.12701 -1.54012,-1.37486 -0.581,-0.54586 -0.82466,-0.56403 -1.15918,-0.0864 -0.22898,0.32691 -0.2551,4.00657 -0.2551,35.94236 0,19.56799 0.0492,35.62733 0.10925,35.68741 0.39962,0.39962 0.94775,-0.23249 5.8214,-6.71321 z m 100.90527,6.18185 c 0.18258,-0.34116 0.25517,-70.56314 0.0734,-71.03674 -0.21302,-0.55514 -0.84919,-0.2599 -2.46354,1.1433 -0.88922,0.77292 -2.27327,1.97122 -3.07566,2.6629 -0.80239,0.69168 -2.12975,1.85152 -2.94968,2.57742 -0.81993,0.72591 -1.71201,1.48689 -1.9824,1.69108 -0.27039,0.20419 -0.82345,0.68469 -1.22903,1.06777 -0.93514,0.88327 -3.27209,2.95573 -4.17804,3.7052 -0.94083,0.77833 -6.93589,6.00491 -8.92833,7.78387 -0.50473,0.45065 -2.5164,2.21064 -4.47038,3.9111 -1.95397,1.70045 -3.5979,3.23421 -3.65317,3.40834 -0.1285,0.40487 -0.15652,0.36353 3.84708,5.67635 1.85453,2.46098 3.48248,4.63724 3.61768,4.83614 0.23736,0.34922 9.3134,12.49165 12.68673,16.973 0.90859,1.20704 2.58871,3.45616 3.73359,4.99807 1.1449,1.5419 2.1801,2.91407 2.30045,3.04926 0.12036,0.1352 1.4982,1.96031 3.06187,4.05581 2.86964,3.84565 3.23396,4.19864 3.6094,3.49713 z m -52.22669,-31.10939 c 0.40225,-0.33799 2.01417,-1.74545 3.58204,-3.12771 1.56787,-1.38225 3.80932,-3.34854 4.98099,-4.36952 1.17168,-1.02099 3.38394,-2.95192 4.91613,-4.29095 1.5322,-1.33904 3.89194,-3.38771 5.24387,-4.55261 1.35194,-1.16489 2.82784,-2.4538 3.27978,-2.86425 0.45194,-0.41044 3.32445,-2.92164 6.38336,-5.58045 3.0589,-2.6588 5.97525,-5.2029 6.48078,-5.65354 0.50553,-0.45065 1.65196,-1.45635 2.54762,-2.23489 0.89565,-0.77854 4.06496,-3.54386 7.0429,-6.14516 2.97793,-2.6013 5.83543,-5.08561 6.35,-5.52069 0.97812,-0.82704 1.15969,-1.28972 0.61955,-1.5788 -0.21578,-0.11548 -16.92735,-0.15629 -52.6905,-0.12866 -55.52485,0.0429 -52.85052,0.006 -52.57223,0.7309 0.0482,0.12571 1.31346,1.30026 2.81161,2.6101 1.49815,1.30984 3.16636,2.77169 3.70713,3.24855 0.54078,0.47686 2.12209,1.8531 3.51404,3.05831 1.39195,1.20522 3.27938,2.85498 4.19428,3.66614 0.91491,0.81116 2.35329,2.06478 3.19639,2.78581 0.8431,0.72103 2.23719,1.94041 3.09798,2.70974 0.86078,0.76932 2.58706,2.28103 3.83617,3.35935 1.24911,1.07832 3.03008,2.62426 3.95772,3.43542 0.92764,0.81117 2.44973,2.13369 3.38244,2.93895 0.9327,0.80525 2.06647,1.80077 2.51949,2.21225 0.45301,0.41149 1.55308,1.37497 2.4446,2.14106 0.89152,0.7661 1.78414,1.54039 1.9836,1.72065 0.19946,0.18026 1.08417,0.95455 1.96603,1.72064 3.64952,3.17047 9.89073,8.63347 10.79487,9.44889 0.55824,0.50347 1.12469,0.87498 1.33409,0.87498 0.20015,0 0.69302,-0.27653 1.09527,-0.61451 z"
         id="path4589"
         inkscape:connector-curvature="0" />
    </g>
  </g>
</svg>
